<svg xmlns="http://www.w3.org/2000/svg" viewBox="0 0 213.65 247.89"><defs><style>.cls-1,.cls-2{fill:#2a4a7c;}.cls-1,.cls-2,.cls-4{stroke:#fff;stroke-miterlimit:10;}.cls-1{stroke-width:4.69px;}.cls-2,.cls-4{stroke-width:4.56px;}.cls-3{fill:#fff;}.cls-4{fill:none;stroke-linecap:round;}.cls-5{font-size:27.37px;font-family:ShreeDev0714-Bold, "Shree Devanagari 714";font-weight:700;}</style></defs><title>log_obserS</title><g id="Capa_2" data-name="Capa 2"><g id="Capa_1-2" data-name="Capa 1"><circle class="cls-1" cx="106.83" cy="83.09" r="80.74"/><circle class="cls-2" cx="106.83" cy="83.09" r="59.76"/><path class="cls-3" d="M107.28,59.28C78.85,59.28,64,80.22,64,83.54s14.9,24.27,43.33,24.27,43.34-20.94,43.34-24.27S135.71,59.28,107.28,59.28Zm0,42.93C96.65,102.21,88,93.85,88,83.54s8.63-18.66,19.26-18.66,19.26,8.35,19.26,18.66S117.92,102.21,107.28,102.21ZM113.21,84a6.39,6.39,0,1,1-6.38-6.39A6.39,6.39,0,0,1,113.21,84Z"/><line class="cls-4" x1="106.83" y1="4.63" x2="106.83" y2="50.24"/><line class="cls-4" x1="106.83" y1="117.76" x2="106.83" y2="163.37"/><line class="cls-4" x1="186.2" y1="83.09" x2="159.74" y2="83.09"/><line class="cls-4" x1="54.82" y1="83.09" x2="28.37" y2="83.09"/><text class="cls-5" transform="translate(0 204.58)">OBSERVADORES</text><text class="cls-5" transform="translate(22.22 233.78)">CIUDADANOS</text></g></g></svg>